<?xml version="1.0" encoding="UTF-8"?>
<svg id="Laag_1" data-name="Laag 1" xmlns="http://www.w3.org/2000/svg" viewBox="0 0 548.6 694.89">
  <defs>
    <style>
      .cls-1 {
        stroke-dasharray: 12.35 12.35;
      }

      .cls-1, .cls-2, .cls-3, .cls-4, .cls-5 {
        fill: none;
        stroke: #000;
        stroke-miterlimit: 10;
      }

      .cls-1, .cls-2, .cls-3, .cls-5 {
        stroke-linecap: round;
      }

      .cls-1, .cls-3 {
        stroke-width: 4px;
      }

      .cls-2 {
        stroke-width: 6px;
      }

      .cls-4, .cls-5 {
        stroke-width: 8px;
      }
    </style>
  </defs>
  <line class="cls-5" x1="60.09" y1="543.57" x2="178.81" y2="543.57"/>
  <line class="cls-5" x1="210.64" y1="543.57" x2="210.64" y2="543.57"/>
  <line class="cls-5" x1="192.13" y1="342.21" x2="192.13" y2="342.21"/>
  <line class="cls-5" x1="171.19" y1="350.26" x2="171.19" y2="350.26"/>
  <line class="cls-5" x1="168.26" y1="339.28" x2="168.26" y2="339.28"/>
  <line class="cls-5" x1="154.21" y1="352.04" x2="154.21" y2="352.04"/>
  <line class="cls-5" x1="195.19" y1="323.83" x2="195.19" y2="323.83"/>
  <line class="cls-5" x1="206.17" y1="327.02" x2="206.17" y2="327.02"/>
  <line class="cls-5" x1="208.6" y1="312.09" x2="208.6" y2="312.09"/>
  <line class="cls-5" x1="203.62" y1="350.26" x2="203.62" y2="350.26"/>
  <line class="cls-5" x1="265.53" y1="309.79" x2="265.53" y2="309.79"/>
  <line class="cls-5" x1="270.77" y1="327.02" x2="270.77" y2="327.02"/>
  <line class="cls-5" x1="268.85" y1="348.68" x2="268.85" y2="348.68"/>
  <line class="cls-3" x1="243.06" y1="355.36" x2="243.06" y2="355.36"/>
  <line class="cls-3" x1="231.83" y1="356.13" x2="231.83" y2="356.13"/>
  <line class="cls-3" x1="205.53" y1="339.28" x2="205.53" y2="339.28"/>
  <line class="cls-3" x1="181.91" y1="333.15" x2="181.91" y2="333.15"/>
  <line class="cls-3" x1="184.09" y1="352.68" x2="184.09" y2="352.68"/>
  <line class="cls-3" x1="160.72" y1="346.81" x2="160.72" y2="346.81"/>
  <line class="cls-3" x1="142.09" y1="353.96" x2="142.09" y2="353.96"/>
  <line class="cls-3" x1="265.53" y1="356.13" x2="265.53" y2="356.13"/>
  <line class="cls-3" x1="268.85" y1="339.79" x2="268.85" y2="339.79"/>
  <line class="cls-3" x1="270.77" y1="317.45" x2="270.77" y2="317.45"/>
  <line class="cls-3" x1="272.68" y1="295.11" x2="272.68" y2="295.11"/>
  <line class="cls-5" x1="395.83" y1="543.57" x2="395.83" y2="543.57"/>
  <line class="cls-5" x1="239.32" y1="543.57" x2="364.17" y2="543.57"/>
  <line class="cls-5" x1="424.68" y1="543.57" x2="542.64" y2="543.57"/>
  <path class="cls-4" d="M130.38,543.57v-181.11h149.11v-66.38h112.34v13.28h17.87s27.06,3.06,27.06,38.81l13.28.51v194.89"/>
  <line class="cls-5" x1="143.15" y1="482.98" x2="378.55" y2="310.89"/>
  <line class="cls-5" x1="143.15" y1="424.14" x2="213.92" y2="372.4"/>
  <line class="cls-5" x1="157.04" y1="526.28" x2="401.02" y2="348.68"/>
  <line class="cls-5" x1="242.47" y1="528.49" x2="430.1" y2="391.91"/>
  <line class="cls-5" x1="332.95" y1="521.61" x2="430.1" y2="450.89"/>
  <line class="cls-5" x1="410.46" y1="526.28" x2="450.04" y2="490.92"/>
  <path class="cls-2" d="M71.66,601.96l466.72-4.09"/>
  <line class="cls-2" x1="130.38" y1="617.28" x2="130.38" y2="586.13"/>
  <line class="cls-2" x1="113.11" y1="620.09" x2="147.66" y2="585.53"/>
  <line class="cls-2" x1="128.94" y1="67.02" x2="128.94" y2="35.87"/>
  <line class="cls-2" x1="111.66" y1="69.83" x2="146.21" y2="35.28"/>
  <line class="cls-2" x1="391.83" y1="67.02" x2="391.83" y2="35.87"/>
  <line class="cls-2" x1="374.55" y1="69.83" x2="409.11" y2="35.28"/>
  <line class="cls-2" x1="279.49" y1="65.91" x2="279.49" y2="34.77"/>
  <line class="cls-2" x1="262.21" y1="68.72" x2="296.77" y2="34.17"/>
  <line class="cls-2" x1="258.47" y1="65.91" x2="258.47" y2="34.77"/>
  <line class="cls-2" x1="241.19" y1="68.72" x2="275.74" y2="34.17"/>
  <line class="cls-2" x1="217.62" y1="67.02" x2="217.62" y2="35.87"/>
  <line class="cls-2" x1="200.34" y1="69.83" x2="234.89" y2="35.28"/>
  <line class="cls-2" x1="38.64" y1="345.19" x2="73.19" y2="379.74"/>
  <line class="cls-2" x1="38.64" y1="280.51" x2="73.19" y2="315.06"/>
  <line class="cls-2" x1="261.76" y1="617.19" x2="296.31" y2="582.64"/>
  <line class="cls-2" x1="119.45" y1="694.89" x2="154" y2="660.34"/>
  <line class="cls-2" x1="432.77" y1="617.31" x2="467.32" y2="582.76"/>
  <line class="cls-2" x1="432.77" y1="693.11" x2="467.32" y2="658.55"/>
  <path class="cls-2" d="M75.91,677.87l466.72-4.09"/>
  <line class="cls-2" x1="134.64" y1="693.19" x2="134.64" y2="662.04"/>
  <line class="cls-2" x1="279.03" y1="615.49" x2="279.03" y2="584.34"/>
  <line class="cls-2" x1="450.04" y1="693.19" x2="450.04" y2="662.04"/>
  <line class="cls-2" x1="450.04" y1="615.49" x2="450.04" y2="584.34"/>
  <g>
    <line class="cls-3" x1="279.49" y1="362.47" x2="279.48" y2="368.47"/>
    <line class="cls-1" x1="279.45" y1="380.81" x2="279.06" y2="572.17"/>
    <line class="cls-3" x1="279.04" y1="578.34" x2="279.03" y2="584.34"/>
  </g>
  <polyline class="cls-2" points="258.47 125.19 258.47 348.68 217.62 348.68 217.62 125.19"/>
  <line class="cls-2" x1="231.23" y1="125.19" x2="231.23" y2="348.68"/>
  <line class="cls-2" x1="244.85" y1="125.19" x2="244.85" y2="348.68"/>
  <line class="cls-2" x1="231.23" y1="297.79" x2="244.85" y2="297.79"/>
  <line class="cls-2" x1="231.23" y1="314.64" x2="244.85" y2="314.64"/>
  <line class="cls-5" x1="281.87" y1="296.09" x2="260.85" y2="296.09"/>
  <path class="cls-5" d="M216.43,297.79h-3.83s-74.3,46.13-77.62,50.89c0,0-4.6,3.66-4.6,13.79"/>
  <line class="cls-2" x1="26.72" y1="297.79" x2="92.94" y2="297.79"/>
  <line class="cls-2" x1="26.72" y1="362.47" x2="92.94" y2="362.47"/>
  <line class="cls-2" x1="55.91" y1="279.28" x2="55.91" y2="383.96"/>
  <line class="cls-2" x1="75.57" y1="52.55" x2="477.45" y2="52.55"/>
  <line class="cls-2" x1="73.19" y1="123.02" x2="177.19" y2="123.02"/>
  <line class="cls-2" x1="272.68" y1="123.02" x2="355.91" y2="123.02"/>
  <line class="cls-2" x1="390.13" y1="123.02" x2="477.45" y2="123.02"/>
</svg>
